inDegrees=yes
name=IK-live
DataType=double
version=3
OpenSimVersion=4.1
endheader
time	pelvis_tilt	pelvis_list	pelvis_rotation	pelvis_tx	pelvis_ty	pelvis_tz	hip_flexion_r	hip_adduction_r	hip_rotation_r	knee_angle_r	ankle_angle_r	subtalar_angle_r	mtp_angle_r	hip_flexion_l	hip_adduction_l	hip_rotation_l	knee_angle_l	ankle_angle_l	subtalar_angle_l	mtp_angle_l	lumbar_extension	lumbar_bending	lumbar_rotation	neck_flex	neck_latbend	neck_rot	arm_flex_r	arm_add_r	arm_rot_r	elbow_flex_r	pro_sup_r	wrist_flex_r	wrist_dev_r	arm_flex_l	arm_add_l	arm_rot_l	elbow_flex_l	pro_sup_l	wrist_flex_l	wrist_dev_l
34.4063262	5.596951796075678	-1.39437078472538	61.24563440339909	0	1	0	0.4125437356839236	16.93629762759065	-11.50364459179549	-3.486142052974498	3.253066194477665	-14.63059216246487	0	26.12508455245766	-5.844821578866761	22.40989908379816	-35.2804399331366	-11.79978030336395	14.17791098948095	0	-11.5621761494986	-9.986496330666869	9.691450851408307	-7.182255390003088	-2.54286164879917	64.54541488973376	9.930205546789729	-1.049736293321019	23.1408829334617	28.51179293025771	48.00437027752813	1.159463513834675	1.766290129206402	7.009210877225549	-21.22412037533882	7.166130854301158	10.94523843078862	45.87253254671716	1.467384455072573	4.246389580984076
34.456395	5.532039087955166	-1.253968702524929	61.2893948728514	0	1	0	0.3814356974575079	16.80176789887123	-11.64406732012318	-3.500797089172959	3.25281216751432	-14.61922694460553	0	26.06400084303231	-5.688502799464341	22.37432136049912	-35.23848821772473	-11.93629773574704	14.1540154361392	0	-11.57893960119476	-9.89452457744412	9.642562170587338	-7.234204659549216	-2.568342804747507	64.47299156699333	9.843119028489699	-1.149675203982885	22.97824232887214	28.43018738158064	47.92406061702392	1.180881210405899	1.800777630434643	6.711646262943477	-21.18189321372467	6.763416080877906	11.00348073192635	46.3956954493245	1.555439540471472	4.349987317419648
34.5064172	5.494002127779726	-1.135727148909146	61.27926685062098	0	1	0	0.3464933305295921	16.72154533096373	-11.68531410958554	-3.494199879782335	3.216438313889101	-14.62647811942263	0	26.0348344862168	-5.603444814193242	22.33537103337822	-35.21527954613991	-12.07948436353263	14.22507998070769	0	-11.57867918102218	-9.769017540724567	9.544982323567831	-7.257254577085686	-2.682368964081975	64.45658355656306	9.777768640936211	-1.295512594413181	22.99449498057071	28.43435770867512	47.67814329466916	1.203293520516395	1.812344187001712	6.386924144871961	-21.10319761189226	6.401969077564131	11.03213373284519	46.62140886110412	1.673581282235619	4.461338845846431
34.5271411	5.449987992278541	-1.072370649283143	61.25918410561262	0	1	0	0.3211525871147902	16.66730752431863	-11.66697356695568	-3.478408444610837	3.199066973799065	-14.64422485796248	0	26.0119217408273	-5.538732141269905	22.310253897347	-35.19803930180769	-12.14858562096274	14.24358336897034	0	-11.5688921577496	-9.800576509151984	9.505887975762228	-7.211963333567971	-2.681774230636162	64.46822626024671	9.758172240156238	-1.299392394420022	22.96802849424846	28.44481429802789	47.54854034145524	1.21262923015649	1.830100634687917	6.266090952535168	-21.11688683284174	6.234300155475537	11.01767079806364	46.76323412027085	1.718171913831089	4.517205931103816
34.5565039	5.413329840604975	-1.025158274536447	61.22819318083807	0	1	0	0.3125389902222458	16.60535597893339	-11.64762847484055	-3.478159169754836	3.176803332555166	-14.62859118835429	0	25.99582510919712	-5.497816042182776	22.29004581493138	-35.18674484757957	-12.21742258474002	14.25650814169255	0	-11.56379650685631	-9.836169462727096	9.466723003901764	-7.138168282757833	-2.645790572522674	64.4687348690635	9.771694712486546	-1.294546905265581	22.96610963438048	28.42929309792363	47.41760113030342	1.207196676814112	1.829888477222612	6.179212726439172	-21.14095234377325	6.057044016472797	11.00703689157345	46.9104352923904	1.776722156696405	4.619264352907152
34.5769374	5.406817724383377	-0.9769477852567801	61.20583702829659	0	1	0	0.2902931264374591	16.58101816517787	-11.65010538993615	-3.471088507136391	3.170379133576887	-14.64290879457937	0	25.96678360998087	-5.474948341445463	22.27373120909147	-35.17705867041638	-12.30052246938448	14.25604669560838	0	-11.57865049167908	-9.816362117131231	9.420051472470169	-7.085010813985533	-2.649135188608138	64.46622073838522	9.783688184380564	-1.337632771652656	23.00493157148069	28.41700995743311	47.27663143215555	1.19588740308945	1.832168678168363	6.101556378059853	-21.12350740100991	5.895932191271585	10.99536304542704	47.05349838764929	1.794268856917741	4.667683305742682
34.6064831	5.394149782045889	-0.9316687887850651	61.15127677605449	0	1	0	0.2681396358522584	16.54888602527417	-11.60534229943551	-3.452294375906791	3.13757158832252	-14.66956385675362	0	25.94527951055265	-5.47095787179208	22.22216571915287	-35.1742464688265	-12.36872350779729	14.25450188317593	0	-11.57140761397745	-9.849157871081726	9.404833236183492	-7.081130400848979	-2.626119849319314	64.4655545018057	9.780405578688644	-1.346185786871108	23.06083473211083	28.41729189000343	47.10834160094701	1.184245630362971	1.824054968781286	6.011485836866675	-21.14601741221419	5.746741239718759	11.02396428448744	47.1828678635499	1.781543211037943	4.689667031101947
34.6563469	5.428980054200033	-0.8481199798933833	61.05574997039663	0	1	0	0.1935052800085852	16.56621002307613	-11.49795407653394	-3.399815413194617	3.092205791729681	-14.75678576201333	0	25.87662788572318	-5.513230596543849	22.14969798248839	-35.18285401076798	-12.44649049436141	14.23878268384467	0	-11.52570881958244	-9.873251528879315	9.416843707993563	-7.163070562289094	-2.60307242370597	64.39852777722216	9.736054851204742	-1.336092729626429	23.1772288915925	28.39646529257085	46.82295718750794	1.176939748688389	1.823374493834032	5.797126233354993	-21.16488521203105	5.614842662474833	11.10024635160021	47.24273066806911	1.71984231654885	4.641200186763935
34.6852143	5.460200018496133	-0.7944462258695307	61.01846093735414	0	1	0	0.14190289060544	16.57601572497093	-11.47254226610111	-3.373283243226349	3.079827528092115	-14.79681129940146	0	25.8225140975587	-5.533068685160629	22.12272692817605	-35.19311396733522	-12.47295730027456	14.25570427272481	0	-11.53513793033526	-9.852254745488887	9.421985473520852	-7.203551447389306	-2.639366158254001	64.34280250910693	9.721114126633546	-1.358560474032574	23.21465651204187	28.40680354473403	46.75854517440202	1.184584121030835	1.841082263458742	5.745674590895892	-21.14184849325932	5.663377113055584	11.1007978864033	47.12412028281491	1.734625119166214	4.627407833674666
34.7166676	5.482663811454533	-0.7558816378573344	60.98006229081094	0	1	0	0.09986409570037905	16.59045273403126	-11.41574041870656	-3.34429364194839	3.059798847542139	-14.82883085039422	0	25.78520834117106	-5.561849343590832	22.09157747297553	-35.19427217340488	-12.49991966474598	14.2617756779919	0	-11.55804121039834	-9.841006986060306	9.428852932828446	-7.195758151448349	-2.684928931928384	64.2964611016869	9.727371850794528	-1.380943222117002	23.25156983699664	28.43500223286973	46.72868472120935	1.185381467979874	1.843345609443336	5.742190710058002	-21.13618335976804	5.713242974679098	11.09515441330928	47.03389940230674	1.792755289653371	4.685101299412796
34.7564375	5.51606955973305	-0.6659927484254654	60.89192308015745	0	1	0	0.008737142077538541	16.62356088338894	-11.29185984328701	-3.277727333192161	3.046933559162311	-14.94154913033127	0	25.73993589227883	-5.60471938782354	22.00663355176673	-35.22966142578427	-12.52966346846163	14.27404850075262	0	-11.60716402877531	-9.871314512454621	9.467070800639911	-7.148602944907224	-2.728329605997351	64.24787816666468	9.725168017132493	-1.430186968260625	23.34515038074602	28.56192608644542	46.68094931968078	1.18978732195964	1.84412913753248	5.771239096464392	-21.10945486690594	5.669217686509691	11.06869925678867	47.03874047424809	1.810094487118398	4.736635556473493
34.7851764	5.528921036343161	-0.6226173986768949	60.85828904531918	0	1	0	-0.02559440097871613	16.62853682445644	-11.2260002398965	-3.26620457171824	3.045781622734485	-14.97607134645631	0	25.73112272207639	-5.624515869427846	21.956723885729	-35.25192624990238	-12.54445151608442	14.28647750651701	0	-11.63387320748219	-9.890616710306015	9.467164689847545	-7.152988667024255	-2.767923597653209	64.22227648561817	9.726367821468413	-1.441910894139434	23.38833866509151	28.61645025479356	46.65775179551581	1.174397619721918	1.831500858557451	5.794835749548488	-21.09865933127721	5.616408744350166	11.0674854128111	47.06139660916956	1.792140518274451	4.741044876059675
